<svg width="34" height="34" viewBox="0 0 34 34" fill="none" xmlns="http://www.w3.org/2000/svg">
<g clip-path="url(#clip0_2_1348)">
<g clip-path="url(#clip1_2_1348)">
<g clip-path="url(#clip2_2_1348)">
<path d="M26.564 0.359863H6.72797C3.07626 0.359863 0.115967 3.32016 0.115967 6.97186V26.8079C0.115967 30.4596 3.07626 33.4199 6.72797 33.4199H26.564C30.2157 33.4199 33.176 30.4596 33.176 26.8079V6.97186C33.176 3.32016 30.2157 0.359863 26.564 0.359863Z" fill="#5AA676" fill-opacity="0.2"/>
<path d="M23.812 12.2036C23.9861 12.3779 24.0839 12.6142 24.0839 12.8606C24.0839 13.107 23.9861 13.3433 23.812 13.5177L14.8238 22.5059C14.6495 22.68 14.4131 22.7778 14.1667 22.7778C13.9203 22.7778 13.684 22.68 13.5096 22.5059L9.48045 18.4767C9.31631 18.3003 9.22696 18.0672 9.23109 17.8262C9.23523 17.5854 9.33267 17.3555 9.50276 17.1849C9.67335 17.0147 9.90329 16.9173 10.1442 16.9132C10.3851 16.909 10.6182 16.9984 10.7946 17.1626L14.1667 20.5347L22.4978 12.2036C22.6722 12.0294 22.9085 11.9316 23.1549 11.9316C23.4013 11.9316 23.6377 12.0294 23.812 12.2036Z" fill="#08773A"/>
</g>
</g>
<g clip-path="url(#clip3_2_1348)">
<g clip-path="url(#clip4_2_1348)">
<path d="M26.564 0.359863H6.72797C3.07626 0.359863 0.115967 3.32016 0.115967 6.97186V26.8079C0.115967 30.4596 3.07626 33.4199 6.72797 33.4199H26.564C30.2157 33.4199 33.176 30.4596 33.176 26.8079V6.97186C33.176 3.32016 30.2157 0.359863 26.564 0.359863Z" fill="#E2E6FD"/>
<path d="M16.6462 7.24707C16.3904 7.24707 16.1451 7.34866 15.9643 7.52949C15.7835 7.71032 15.6819 7.95559 15.6819 8.21132V10.1399C15.6819 10.3956 15.7835 10.6408 15.9643 10.8216C16.1451 11.0025 16.3904 11.1041 16.6462 11.1041C16.9019 11.1041 17.1471 11.0025 17.3279 10.8216C17.5088 10.6408 17.6104 10.3956 17.6104 10.1399V8.21132C17.6104 7.95559 17.5088 7.71032 17.3279 7.52949C17.1471 7.34866 16.9019 7.24707 16.6462 7.24707Z" fill="#081777"/>
<path d="M25.3241 15.9258H23.3957C23.1399 15.9258 22.8946 16.0274 22.7138 16.2082C22.533 16.389 22.4314 16.6343 22.4314 16.89C22.4314 17.1457 22.533 17.391 22.7138 17.5718C22.8946 17.7527 23.1399 17.8543 23.3957 17.8543H25.3241C25.5799 17.8543 25.8252 17.7527 26.006 17.5718C26.1868 17.391 26.2884 17.1457 26.2884 16.89C26.2884 16.6343 26.1868 16.389 26.006 16.2082C25.8252 16.0274 25.5799 15.9258 25.3241 15.9258Z" fill="#081777"/>
<path d="M10.8607 16.89C10.8607 16.6343 10.759 16.389 10.5783 16.2082C10.3974 16.0274 10.1521 15.9258 9.89641 15.9258H7.96791C7.71217 15.9258 7.46692 16.0274 7.28608 16.2082C7.10525 16.389 7.00366 16.6343 7.00366 16.89C7.00366 17.1457 7.10525 17.391 7.28608 17.5718C7.46692 17.7527 7.71217 17.8543 7.96791 17.8543H9.89641C10.1521 17.8543 10.3974 17.7527 10.5783 17.5718C10.759 17.391 10.8607 17.1457 10.8607 16.89Z" fill="#081777"/>
<path d="M11.0726 10.1428C10.8831 9.97392 10.6353 9.88557 10.3816 9.8964C10.1281 9.90722 9.8887 10.0164 9.7143 10.2009C9.53991 10.3853 9.44429 10.6304 9.44759 10.8841C9.45098 11.138 9.55305 11.3805 9.73224 11.5602L11.1208 12.9006C11.214 12.9905 11.3243 13.0608 11.4452 13.1072C11.5662 13.1536 11.6953 13.1751 11.8247 13.1705C11.9545 13.17 12.0831 13.1433 12.2023 13.0919C12.3216 13.0406 12.4293 12.9656 12.5189 12.8716C12.6985 12.691 12.7993 12.4466 12.7993 12.1918C12.7993 11.937 12.6985 11.6927 12.5189 11.512L11.0726 10.1428Z" fill="#081777"/>
<path d="M21.4674 13.171C21.7157 13.17 21.9539 13.0733 22.1327 12.9009L23.5212 11.5606C23.6906 11.3836 23.7863 11.1488 23.7888 10.9039C23.7913 10.6589 23.7005 10.4222 23.5348 10.2417C23.3691 10.0612 23.1409 9.95066 22.8966 9.9324C22.6523 9.91405 22.4102 9.98942 22.2195 10.1432L20.831 11.5124C20.6514 11.6931 20.5505 11.9375 20.5505 12.1922C20.5505 12.4469 20.6514 12.6913 20.831 12.872C20.9979 13.0482 21.2251 13.1549 21.4674 13.171Z" fill="#081777"/>
<path d="M16.6462 22.6753C16.3904 22.6753 16.1451 22.7769 15.9643 22.9577C15.7835 23.1385 15.6819 23.3838 15.6819 23.6396V25.568C15.6819 25.8238 15.7835 26.0691 15.9643 26.2499C16.1451 26.4307 16.3904 26.5323 16.6462 26.5323C16.9019 26.5323 17.1471 26.4307 17.3279 26.2499C17.5088 26.0691 17.6104 25.8238 17.6104 25.568V23.6396C17.6104 23.3838 17.5088 23.1385 17.3279 22.9577C17.1471 22.7769 16.9019 22.6753 16.6462 22.6753Z" fill="#081777"/>
<path d="M22.171 20.882C21.9869 20.7043 21.7397 20.607 21.4838 20.6115C21.2279 20.616 20.9843 20.722 20.8066 20.9061C20.6289 21.0903 20.5316 21.3375 20.536 21.5934C20.5406 21.8492 20.6465 22.0928 20.8307 22.2705L22.2192 23.6398C22.4024 23.8168 22.6482 23.9142 22.903 23.9105C23.1577 23.907 23.4007 23.8027 23.5788 23.6205C23.669 23.5308 23.7405 23.4241 23.7893 23.3065C23.8381 23.1891 23.8632 23.0631 23.8632 22.9358C23.8632 22.8086 23.8381 22.6827 23.7893 22.5652C23.7405 22.4477 23.669 22.341 23.5788 22.2513L22.171 20.882Z" fill="#081777"/>
<path d="M11.121 20.8829L9.73249 22.2231C9.64215 22.3128 9.57041 22.4194 9.52149 22.5369C9.47247 22.6545 9.44727 22.7805 9.44727 22.9078C9.44727 23.0351 9.47247 23.1611 9.52149 23.2786C9.57041 23.3961 9.64215 23.5027 9.73249 23.5924C9.82299 23.6846 9.93102 23.7578 10.0503 23.8075C10.1695 23.8572 10.2976 23.8824 10.4268 23.8816C10.6645 23.8837 10.8945 23.7978 11.0728 23.6406L12.4613 22.3003C12.5525 22.2123 12.6255 22.1072 12.676 21.9909C12.7266 21.8747 12.7538 21.7498 12.756 21.6231C12.7582 21.4964 12.7355 21.3705 12.689 21.2526C12.6427 21.1347 12.5735 21.027 12.4855 20.9358C12.3975 20.8447 12.2923 20.7718 12.1761 20.7212C12.0599 20.6706 11.9349 20.6435 11.8082 20.6413C11.6815 20.639 11.5557 20.6618 11.4377 20.7081C11.3199 20.7546 11.2122 20.8238 11.121 20.9118V20.8829Z" fill="#081777"/>
</g>
</g>
</g>
<defs>
<clipPath id="clip0_2_1348">
<rect width="33.06" height="33.06" fill="white" transform="translate(0.115967 0.359863)"/>
</clipPath>
<clipPath id="clip1_2_1348">
<rect width="33.06" height="33.06" fill="white" transform="translate(0.115967 0.359863)"/>
</clipPath>
<clipPath id="clip2_2_1348">
<rect width="33.06" height="33.06" fill="white" transform="translate(0.115967 0.359863)"/>
</clipPath>
<clipPath id="clip3_2_1348">
<rect width="33.06" height="33.06" fill="white" transform="translate(0.115967 0.359863)"/>
</clipPath>
<clipPath id="clip4_2_1348">
<rect width="33.06" height="33.06" fill="white" transform="translate(0.115967 0.359863)"/>
</clipPath>
</defs>
</svg>
